solid STL generated by MeshLab
  facet normal 0.000000e+000 0.000000e+000 1.000000e+000
    outer loop
      vertex  1.000000e+000 0.000000e+000 6.211106e-001
      vertex  -1.000000e+000 0.000000e+000 6.211106e-001
      vertex  -1.000000e+000 -1.912000e+000 6.211106e-001
    endloop
  endfacet
  facet normal 0.000000e+000 0.000000e+000 1.000000e+000
    outer loop
      vertex  1.000000e+000 0.000000e+000 6.211106e-001
      vertex  -1.000000e+000 -1.912000e+000 6.211106e-001
      vertex  1.000000e+000 -1.912000e+000 6.211106e-001
    endloop
  endfacet
  facet normal 0.000000e+000 0.000000e+000 -1.000000e+000
    outer loop
      vertex  -1.000000e+000 0.000000e+000 -6.399661e-001
      vertex  -1.000000e+000 1.912000e+000 -6.399661e-001
      vertex  1.000000e+000 0.000000e+000 -6.399661e-001
    endloop
  endfacet
  facet normal 0.000000e+000 0.000000e+000 -1.000000e+000
    outer loop
      vertex  -1.000000e+000 1.912000e+000 -6.399661e-001
      vertex  1.000000e+000 1.912000e+000 -6.399661e-001
      vertex  1.000000e+000 0.000000e+000 -6.399661e-001
    endloop
  endfacet
  facet normal -0.000000e+000 1.000000e+000 0.000000e+000
    outer loop
      vertex  -6.420000e-001 3.824000e+000 6.453644e-001
      vertex  6.420000e-001 3.824000e+000 6.453644e-001
      vertex  6.420000e-001 3.824000e+000 -1.031391e-001
    endloop
  endfacet
  facet normal 0.000000e+000 1.000000e+000 0.000000e+000
    outer loop
      vertex  -6.420000e-001 3.824000e+000 6.453644e-001
      vertex  6.420000e-001 3.824000e+000 -1.031391e-001
      vertex  -6.420000e-001 3.824000e+000 -1.031391e-001
    endloop
  endfacet
  facet normal 8.736596e-001 7.560493e-003 4.864789e-001
    outer loop
      vertex  1.000000e+000 0.000000e+000 6.211106e-001
      vertex  1.000000e+000 1.912000e+000 5.913957e-001
      vertex  5.720000e-001 1.912000e+000 1.360034e+000
    endloop
  endfacet
  facet normal 0.000000e+000 -3.604825e-001 9.327659e-001
    outer loop
      vertex  1.000000e+000 0.000000e+000 6.211106e-001
      vertex  5.720000e-001 1.912000e+000 1.360034e+000
      vertex  -5.720000e-001 1.912000e+000 1.360034e+000
    endloop
  endfacet
  facet normal 0.000000e+000 -3.604825e-001 9.327659e-001
    outer loop
      vertex  -5.720000e-001 1.912000e+000 1.360034e+000
      vertex  -1.000000e+000 0.000000e+000 6.211106e-001
      vertex  1.000000e+000 0.000000e+000 6.211106e-001
    endloop
  endfacet
  facet normal 0.000000e+000 0.000000e+000 -1.000000e+000
    outer loop
      vertex  1.000000e+000 -1.912000e+000 -6.399661e-001
      vertex  -1.000000e+000 -1.912000e+000 -6.399661e-001
      vertex  -1.000000e+000 0.000000e+000 -6.399661e-001
    endloop
  endfacet
  facet normal 0.000000e+000 0.000000e+000 -1.000000e+000
    outer loop
      vertex  -1.000000e+000 0.000000e+000 -6.399661e-001
      vertex  1.000000e+000 0.000000e+000 -6.399661e-001
      vertex  1.000000e+000 -1.912000e+000 -6.399661e-001
    endloop
  endfacet
  facet normal -1.000000e+000 0.000000e+000 0.000000e+000
    outer loop
      vertex  -1.000000e+000 0.000000e+000 6.211106e-001
      vertex  -1.000000e+000 1.912000e+000 5.913957e-001
      vertex  -1.000000e+000 0.000000e+000 -6.399661e-001
    endloop
  endfacet
  facet normal -1.000000e+000 0.000000e+000 -0.000000e+000
    outer loop
      vertex  -1.000000e+000 1.912000e+000 5.913957e-001
      vertex  -1.000000e+000 1.912000e+000 -6.399661e-001
      vertex  -1.000000e+000 0.000000e+000 -6.399661e-001
    endloop
  endfacet
  facet normal 0.000000e+000 -1.198296e-001 9.927945e-001
    outer loop
      vertex  6.340000e-001 -3.824000e+000 3.903336e-001
      vertex  1.000000e+000 -1.912000e+000 6.211106e-001
      vertex  -6.340000e-001 -3.824000e+000 3.903336e-001
    endloop
  endfacet
  facet normal 0.000000e+000 -1.198296e-001 9.927945e-001
    outer loop
      vertex  1.000000e+000 -1.912000e+000 6.211106e-001
      vertex  -1.000000e+000 -1.912000e+000 6.211106e-001
      vertex  -6.340000e-001 -3.824000e+000 3.903336e-001
    endloop
  endfacet
  facet normal 0.000000e+000 0.000000e+000 -1.000000e+000
    outer loop
      vertex  -1.000000e+000 1.912000e+000 -6.399661e-001
      vertex  -1.000000e+000 2.868000e+000 -6.399661e-001
      vertex  1.000000e+000 1.912000e+000 -6.399661e-001
    endloop
  endfacet
  facet normal 0.000000e+000 0.000000e+000 -1.000000e+000
    outer loop
      vertex  -1.000000e+000 2.868000e+000 -6.399661e-001
      vertex  1.000000e+000 2.868000e+000 -6.399661e-001
      vertex  1.000000e+000 1.912000e+000 -6.399661e-001
    endloop
  endfacet
  facet normal 8.736846e-001 -0.000000e+000 4.864928e-001
    outer loop
      vertex  1.000000e+000 1.912000e+000 5.913957e-001
      vertex  1.000000e+000 2.868000e+000 5.913957e-001
      vertex  5.720000e-001 1.912000e+000 1.360034e+000
    endloop
  endfacet
  facet normal 8.736846e-001 0.000000e+000 4.864928e-001
    outer loop
      vertex  1.000000e+000 2.868000e+000 5.913957e-001
      vertex  5.720000e-001 2.868000e+000 1.360034e+000
      vertex  5.720000e-001 1.912000e+000 1.360034e+000
    endloop
  endfacet
  facet normal -9.821674e-001 -1.880090e-001 0.000000e+000
    outer loop
      vertex  -6.340000e-001 -3.824000e+000 3.903336e-001
      vertex  -1.000000e+000 -1.912000e+000 6.211106e-001
      vertex  -1.000000e+000 -1.912000e+000 -6.399661e-001
    endloop
  endfacet
  facet normal -9.821673e-001 -1.880090e-001 -0.000000e+000
    outer loop
      vertex  -6.340000e-001 -3.824000e+000 3.903336e-001
      vertex  -1.000000e+000 -1.912000e+000 -6.399661e-001
      vertex  -6.340000e-001 -3.824000e+000 -4.091890e-001
    endloop
  endfacet
  facet normal 0.000000e+000 -0.000000e+000 1.000000e+000
    outer loop
      vertex  5.720000e-001 1.912000e+000 1.360034e+000
      vertex  5.720000e-001 2.868000e+000 1.360034e+000
      vertex  -5.720000e-001 1.912000e+000 1.360034e+000
    endloop
  endfacet
  facet normal 0.000000e+000 0.000000e+000 1.000000e+000
    outer loop
      vertex  5.720000e-001 2.868000e+000 1.360034e+000
      vertex  -5.720000e-001 2.868000e+000 1.360034e+000
      vertex  -5.720000e-001 1.912000e+000 1.360034e+000
    endloop
  endfacet
  facet normal 0.000000e+000 -1.198296e-001 -9.927945e-001
    outer loop
      vertex  -6.340000e-001 -3.824000e+000 -4.091890e-001
      vertex  -1.000000e+000 -1.912000e+000 -6.399661e-001
      vertex  1.000000e+000 -1.912000e+000 -6.399661e-001
    endloop
  endfacet
  facet normal 0.000000e+000 -1.198296e-001 -9.927945e-001
    outer loop
      vertex  -6.340000e-001 -3.824000e+000 -4.091890e-001
      vertex  1.000000e+000 -1.912000e+000 -6.399661e-001
      vertex  6.340000e-001 -3.824000e+000 -4.091890e-001
    endloop
  endfacet
  facet normal 9.821673e-001 -1.880090e-001 0.000000e+000
    outer loop
      vertex  6.340000e-001 -3.824000e+000 -4.091890e-001
      vertex  1.000000e+000 -1.912000e+000 -6.399661e-001
      vertex  6.340000e-001 -3.824000e+000 3.903336e-001
    endloop
  endfacet
  facet normal 9.821674e-001 -1.880090e-001 0.000000e+000
    outer loop
      vertex  1.000000e+000 -1.912000e+000 -6.399661e-001
      vertex  1.000000e+000 -1.912000e+000 6.211106e-001
      vertex  6.340000e-001 -3.824000e+000 3.903336e-001
    endloop
  endfacet
  facet normal -1.000000e+000 0.000000e+000 0.000000e+000
    outer loop
      vertex  -1.000000e+000 1.912000e+000 5.913957e-001
      vertex  -1.000000e+000 2.868000e+000 5.913957e-001
      vertex  -1.000000e+000 1.912000e+000 -6.399661e-001
    endloop
  endfacet
  facet normal -1.000000e+000 0.000000e+000 -0.000000e+000
    outer loop
      vertex  -1.000000e+000 2.868000e+000 5.913957e-001
      vertex  -1.000000e+000 2.868000e+000 -6.399661e-001
      vertex  -1.000000e+000 1.912000e+000 -6.399661e-001
    endloop
  endfacet
  facet normal 0.000000e+000 4.896216e-001 -8.719350e-001
    outer loop
      vertex  -6.420000e-001 3.824000e+000 -1.031391e-001
      vertex  6.420000e-001 3.824000e+000 -1.031391e-001
      vertex  1.000000e+000 2.868000e+000 -6.399661e-001
    endloop
  endfacet
  facet normal 0.000000e+000 4.896216e-001 -8.719350e-001
    outer loop
      vertex  1.000000e+000 2.868000e+000 -6.399661e-001
      vertex  -1.000000e+000 2.868000e+000 -6.399661e-001
      vertex  -6.420000e-001 3.824000e+000 -1.031391e-001
    endloop
  endfacet
  facet normal 9.364901e-001 3.506940e-001 -0.000000e+000
    outer loop
      vertex  6.420000e-001 3.824000e+000 -1.031391e-001
      vertex  6.420000e-001 3.824000e+000 6.453644e-001
      vertex  1.000000e+000 2.868000e+000 5.913957e-001
    endloop
  endfacet
  facet normal 9.364901e-001 3.506940e-001 0.000000e+000
    outer loop
      vertex  6.420000e-001 3.824000e+000 -1.031391e-001
      vertex  1.000000e+000 2.868000e+000 5.913957e-001
      vertex  1.000000e+000 2.868000e+000 -6.399661e-001
    endloop
  endfacet
  facet normal -0.000000e+000 5.987498e-001 8.009361e-001
    outer loop
      vertex  -5.720000e-001 2.868000e+000 1.360034e+000
      vertex  5.720000e-001 2.868000e+000 1.360034e+000
      vertex  6.420000e-001 3.824000e+000 6.453644e-001
    endloop
  endfacet
  facet normal 0.000000e+000 5.987498e-001 8.009362e-001
    outer loop
      vertex  6.420000e-001 3.824000e+000 6.453644e-001
      vertex  -6.420000e-001 3.824000e+000 6.453644e-001
      vertex  -5.720000e-001 2.868000e+000 1.360034e+000
    endloop
  endfacet
  facet normal -8.369046e-001 2.870939e-001 4.660126e-001
    outer loop
      vertex  -6.420000e-001 3.824000e+000 6.453644e-001
      vertex  -1.000000e+000 2.868000e+000 5.913957e-001
      vertex  -5.720000e-001 2.868000e+000 1.360034e+000
    endloop
  endfacet
  facet normal -6.337298e-001 -7.735545e-001 0.000000e+000
    outer loop
      vertex  -6.340000e-001 -3.824000e+000 -4.091890e-001
      vertex  0.000000e+000 -4.343400e+000 -9.427738e-003
      vertex  -6.340000e-001 -3.824000e+000 3.903336e-001
    endloop
  endfacet
  facet normal -0.000000e+000 -6.099239e-001 -7.924600e-001
    outer loop
      vertex  6.340000e-001 -3.824000e+000 -4.091890e-001
      vertex  0.000000e+000 -4.343400e+000 -9.427738e-003
      vertex  -6.340000e-001 -3.824000e+000 -4.091890e-001
    endloop
  endfacet
  facet normal 6.337298e-001 -7.735545e-001 0.000000e+000
    outer loop
      vertex  6.340000e-001 -3.824000e+000 3.903336e-001
      vertex  0.000000e+000 -4.343400e+000 -9.427738e-003
      vertex  6.340000e-001 -3.824000e+000 -4.091890e-001
    endloop
  endfacet
  facet normal 0.000000e+000 -6.099239e-001 7.924600e-001
    outer loop
      vertex  -6.340000e-001 -3.824000e+000 3.903336e-001
      vertex  0.000000e+000 -4.343400e+000 -9.427738e-003
      vertex  6.340000e-001 -3.824000e+000 3.903336e-001
    endloop
  endfacet
  facet normal 1.000000e+000 0.000000e+000 -0.000000e+000
    outer loop
      vertex  1.000000e+000 2.868000e+000 -6.399661e-001
      vertex  1.000000e+000 2.868000e+000 5.913957e-001
      vertex  1.000000e+000 1.912000e+000 5.913957e-001
    endloop
  endfacet
  facet normal 1.000000e+000 0.000000e+000 0.000000e+000
    outer loop
      vertex  1.000000e+000 2.868000e+000 -6.399661e-001
      vertex  1.000000e+000 1.912000e+000 5.913957e-001
      vertex  1.000000e+000 1.912000e+000 -6.399661e-001
    endloop
  endfacet
  facet normal -8.736846e-001 0.000000e+000 4.864928e-001
    outer loop
      vertex  -5.720000e-001 2.868000e+000 1.360034e+000
      vertex  -1.000000e+000 2.868000e+000 5.913957e-001
      vertex  -1.000000e+000 1.912000e+000 5.913957e-001
    endloop
  endfacet
  facet normal -8.736846e-001 0.000000e+000 4.864928e-001
    outer loop
      vertex  -5.720000e-001 2.868000e+000 1.360034e+000
      vertex  -1.000000e+000 1.912000e+000 5.913957e-001
      vertex  -5.720000e-001 1.912000e+000 1.360034e+000
    endloop
  endfacet
  facet normal -8.736596e-001 7.560489e-003 4.864789e-001
    outer loop
      vertex  -5.720000e-001 1.912000e+000 1.360034e+000
      vertex  -1.000000e+000 1.912000e+000 5.913957e-001
      vertex  -1.000000e+000 0.000000e+000 6.211106e-001
    endloop
  endfacet
  facet normal -9.364901e-001 3.506940e-001 0.000000e+000
    outer loop
      vertex  -1.000000e+000 2.868000e+000 -6.399661e-001
      vertex  -1.000000e+000 2.868000e+000 5.913957e-001
      vertex  -6.420000e-001 3.824000e+000 -1.031391e-001
    endloop
  endfacet
  facet normal -9.364901e-001 3.506941e-001 0.000000e+000
    outer loop
      vertex  -1.000000e+000 2.868000e+000 5.913957e-001
      vertex  -6.420000e-001 3.824000e+000 6.453644e-001
      vertex  -6.420000e-001 3.824000e+000 -1.031391e-001
    endloop
  endfacet
  facet normal 1.000000e+000 0.000000e+000 0.000000e+000
    outer loop
      vertex  1.000000e+000 0.000000e+000 -6.399661e-001
      vertex  1.000000e+000 1.912000e+000 -6.399661e-001
      vertex  1.000000e+000 1.912000e+000 5.913957e-001
    endloop
  endfacet
  facet normal 1.000000e+000 0.000000e+000 0.000000e+000
    outer loop
      vertex  1.000000e+000 0.000000e+000 -6.399661e-001
      vertex  1.000000e+000 1.912000e+000 5.913957e-001
      vertex  1.000000e+000 0.000000e+000 6.211106e-001
    endloop
  endfacet
  facet normal 8.369046e-001 2.870939e-001 4.660126e-001
    outer loop
      vertex  5.720000e-001 2.868000e+000 1.360034e+000
      vertex  1.000000e+000 2.868000e+000 5.913957e-001
      vertex  6.420000e-001 3.824000e+000 6.453644e-001
    endloop
  endfacet
  facet normal -1.000000e+000 0.000000e+000 -0.000000e+000
    outer loop
      vertex  -1.000000e+000 0.000000e+000 6.211106e-001
      vertex  -1.000000e+000 0.000000e+000 -6.399661e-001
      vertex  -1.000000e+000 -1.912000e+000 -6.399661e-001
    endloop
  endfacet
  facet normal -1.000000e+000 -0.000000e+000 0.000000e+000
    outer loop
      vertex  -1.000000e+000 0.000000e+000 6.211106e-001
      vertex  -1.000000e+000 -1.912000e+000 -6.399661e-001
      vertex  -1.000000e+000 -1.912000e+000 6.211106e-001
    endloop
  endfacet
  facet normal 1.000000e+000 0.000000e+000 0.000000e+000
    outer loop
      vertex  1.000000e+000 -1.912000e+000 6.211106e-001
      vertex  1.000000e+000 -1.912000e+000 -6.399661e-001
      vertex  1.000000e+000 0.000000e+000 -6.399661e-001
    endloop
  endfacet
  facet normal 1.000000e+000 0.000000e+000 -0.000000e+000
    outer loop
      vertex  1.000000e+000 0.000000e+000 -6.399661e-001
      vertex  1.000000e+000 0.000000e+000 6.211106e-001
      vertex  1.000000e+000 -1.912000e+000 6.211106e-001
    endloop
  endfacet
endsolid vcg
