solid STL generated by MeshLab
  facet normal -7.074130e-001 0.000000e+000 7.068005e-001
    outer loop
      vertex  -2.000000e+000 -1.000000e+000 1.000000e+000
      vertex  -1.351611e+000 -3.900000e-001 1.648951e+000
      vertex  -1.351611e+000 3.900000e-001 1.648951e+000
    endloop
  endfacet
  facet normal -7.074130e-001 0.000000e+000 7.068005e-001
    outer loop
      vertex  -1.351611e+000 3.900000e-001 1.648951e+000
      vertex  -2.000000e+000 1.000000e+000 1.000000e+000
      vertex  -2.000000e+000 -1.000000e+000 1.000000e+000
    endloop
  endfacet
  facet normal 0.000000e+000 0.000000e+000 -1.000000e+000
    outer loop
      vertex  -2.000000e+000 1.000000e+000 0.000000e+000
      vertex  2.000000e+000 1.000000e+000 0.000000e+000
      vertex  2.000000e+000 -1.000000e+000 0.000000e+000
    endloop
  endfacet
  facet normal 0.000000e+000 0.000000e+000 -1.000000e+000
    outer loop
      vertex  -2.000000e+000 1.000000e+000 0.000000e+000
      vertex  2.000000e+000 -1.000000e+000 0.000000e+000
      vertex  -2.000000e+000 -1.000000e+000 0.000000e+000
    endloop
  endfacet
  facet normal 0.000000e+000 -1.000000e+000 -0.000000e+000
    outer loop
      vertex  1.098194e+000 -1.000000e+000 1.000000e+000
      vertex  -2.000000e+000 -1.000000e+000 0.000000e+000
      vertex  2.000000e+000 -1.000000e+000 0.000000e+000
    endloop
  endfacet
  facet normal 0.000000e+000 -1.000000e+000 0.000000e+000
    outer loop
      vertex  1.098194e+000 -1.000000e+000 1.000000e+000
      vertex  2.000000e+000 -1.000000e+000 0.000000e+000
      vertex  2.000000e+000 -1.000000e+000 1.000000e+000
    endloop
  endfacet
  facet normal -0.000000e+000 -1.000000e+000 0.000000e+000
    outer loop
      vertex  1.098194e+000 -1.000000e+000 1.000000e+000
      vertex  -2.000000e+000 -1.000000e+000 1.000000e+000
      vertex  -2.000000e+000 -1.000000e+000 0.000000e+000
    endloop
  endfacet
  facet normal 0.000000e+000 7.286352e-001 6.849020e-001
    outer loop
      vertex  -2.000000e+000 1.000000e+000 1.000000e+000
      vertex  -1.351611e+000 3.900000e-001 1.648951e+000
      vertex  -1.827795e-002 3.900000e-001 1.648951e+000
    endloop
  endfacet
  facet normal -0.000000e+000 7.286352e-001 6.849020e-001
    outer loop
      vertex  -2.000000e+000 1.000000e+000 1.000000e+000
      vertex  -1.827795e-002 3.900000e-001 1.648951e+000
      vertex  1.098194e+000 1.000000e+000 1.000000e+000
    endloop
  endfacet
  facet normal 0.000000e+000 0.000000e+000 1.000000e+000
    outer loop
      vertex  -1.351611e+000 -3.900000e-001 1.648951e+000
      vertex  -1.827795e-002 -3.900000e-001 1.648951e+000
      vertex  -1.827795e-002 3.900000e-001 1.648951e+000
    endloop
  endfacet
  facet normal 0.000000e+000 0.000000e+000 1.000000e+000
    outer loop
      vertex  -1.827795e-002 3.900000e-001 1.648951e+000
      vertex  -1.351611e+000 3.900000e-001 1.648951e+000
      vertex  -1.351611e+000 -3.900000e-001 1.648951e+000
    endloop
  endfacet
  facet normal -0.000000e+000 1.000000e+000 0.000000e+000
    outer loop
      vertex  1.098194e+000 1.000000e+000 1.000000e+000
      vertex  2.000000e+000 1.000000e+000 1.000000e+000
      vertex  2.000000e+000 1.000000e+000 0.000000e+000
    endloop
  endfacet
  facet normal 0.000000e+000 1.000000e+000 0.000000e+000
    outer loop
      vertex  -2.000000e+000 1.000000e+000 0.000000e+000
      vertex  -2.000000e+000 1.000000e+000 1.000000e+000
      vertex  1.098194e+000 1.000000e+000 1.000000e+000
    endloop
  endfacet
  facet normal 0.000000e+000 1.000000e+000 0.000000e+000
    outer loop
      vertex  -2.000000e+000 1.000000e+000 0.000000e+000
      vertex  1.098194e+000 1.000000e+000 1.000000e+000
      vertex  2.000000e+000 1.000000e+000 0.000000e+000
    endloop
  endfacet
  facet normal 0.000000e+000 -7.286352e-001 6.849020e-001
    outer loop
      vertex  -2.000000e+000 -1.000000e+000 1.000000e+000
      vertex  1.098194e+000 -1.000000e+000 1.000000e+000
      vertex  -1.827795e-002 -3.900000e-001 1.648951e+000
    endloop
  endfacet
  facet normal 0.000000e+000 -7.286352e-001 6.849020e-001
    outer loop
      vertex  -2.000000e+000 -1.000000e+000 1.000000e+000
      vertex  -1.827795e-002 -3.900000e-001 1.648951e+000
      vertex  -1.351611e+000 -3.900000e-001 1.648951e+000
    endloop
  endfacet
  facet normal 1.000000e+000 0.000000e+000 -0.000000e+000
    outer loop
      vertex  4.412860e+000 3.000000e-001 3.500000e-001
      vertex  4.412860e+000 3.000000e-001 6.500000e-001
      vertex  4.412860e+000 -3.000000e-001 6.500000e-001
    endloop
  endfacet
  facet normal 1.000000e+000 0.000000e+000 0.000000e+000
    outer loop
      vertex  4.412860e+000 3.000000e-001 3.500000e-001
      vertex  4.412860e+000 -3.000000e-001 6.500000e-001
      vertex  4.412860e+000 -3.000000e-001 3.500000e-001
    endloop
  endfacet
  facet normal 1.435537e-001 0.000000e+000 -9.896425e-001
    outer loop
      vertex  4.412860e+000 3.000000e-001 3.500000e-001
      vertex  4.412860e+000 -3.000000e-001 3.500000e-001
      vertex  2.000000e+000 -1.000000e+000 0.000000e+000
    endloop
  endfacet
  facet normal 1.435537e-001 0.000000e+000 -9.896425e-001
    outer loop
      vertex  2.000000e+000 -1.000000e+000 0.000000e+000
      vertex  2.000000e+000 1.000000e+000 0.000000e+000
      vertex  4.412860e+000 3.000000e-001 3.500000e-001
    endloop
  endfacet
  facet normal 2.786238e-001 9.604003e-001 0.000000e+000
    outer loop
      vertex  4.412860e+000 3.000000e-001 6.500000e-001
      vertex  4.412860e+000 3.000000e-001 3.500000e-001
      vertex  2.000000e+000 1.000000e+000 0.000000e+000
    endloop
  endfacet
  facet normal 2.786238e-001 9.604003e-001 -0.000000e+000
    outer loop
      vertex  2.000000e+000 1.000000e+000 0.000000e+000
      vertex  2.000000e+000 1.000000e+000 1.000000e+000
      vertex  4.412860e+000 3.000000e-001 6.500000e-001
    endloop
  endfacet
  facet normal 1.435537e-001 0.000000e+000 9.896425e-001
    outer loop
      vertex  2.000000e+000 -1.000000e+000 1.000000e+000
      vertex  4.412860e+000 -3.000000e-001 6.500000e-001
      vertex  4.412860e+000 3.000000e-001 6.500000e-001
    endloop
  endfacet
  facet normal 1.435537e-001 0.000000e+000 9.896425e-001
    outer loop
      vertex  4.412860e+000 3.000000e-001 6.500000e-001
      vertex  2.000000e+000 1.000000e+000 1.000000e+000
      vertex  2.000000e+000 -1.000000e+000 1.000000e+000
    endloop
  endfacet
  facet normal 2.786238e-001 -9.604003e-001 0.000000e+000
    outer loop
      vertex  2.000000e+000 -1.000000e+000 0.000000e+000
      vertex  4.412860e+000 -3.000000e-001 3.500000e-001
      vertex  4.412860e+000 -3.000000e-001 6.500000e-001
    endloop
  endfacet
  facet normal 2.786238e-001 -9.604003e-001 0.000000e+000
    outer loop
      vertex  4.412860e+000 -3.000000e-001 6.500000e-001
      vertex  2.000000e+000 -1.000000e+000 1.000000e+000
      vertex  2.000000e+000 -1.000000e+000 0.000000e+000
    endloop
  endfacet
  facet normal -1.000000e+000 0.000000e+000 0.000000e+000
    outer loop
      vertex  -3.683822e+000 -4.220000e-001 3.853203e-001
      vertex  -3.683822e+000 -4.220000e-001 8.073204e-001
      vertex  -3.683822e+000 4.220000e-001 8.073204e-001
    endloop
  endfacet
  facet normal -1.000000e+000 0.000000e+000 -0.000000e+000
    outer loop
      vertex  -3.683822e+000 4.220000e-001 8.073204e-001
      vertex  -3.683822e+000 4.220000e-001 3.853203e-001
      vertex  -3.683822e+000 -4.220000e-001 3.853203e-001
    endloop
  endfacet
  facet normal -3.246709e-001 9.458270e-001 0.000000e+000
    outer loop
      vertex  -2.000000e+000 1.000000e+000 1.000000e+000
      vertex  -2.000000e+000 1.000000e+000 0.000000e+000
      vertex  -3.683822e+000 4.220000e-001 3.853203e-001
    endloop
  endfacet
  facet normal -3.246709e-001 9.458271e-001 0.000000e+000
    outer loop
      vertex  -2.000000e+000 1.000000e+000 1.000000e+000
      vertex  -3.683822e+000 4.220000e-001 3.853203e-001
      vertex  -3.683822e+000 4.220000e-001 8.073204e-001
    endloop
  endfacet
  facet normal -2.230706e-001 0.000000e+000 -9.748024e-001
    outer loop
      vertex  -2.000000e+000 -1.000000e+000 0.000000e+000
      vertex  -3.683822e+000 -4.220000e-001 3.853203e-001
      vertex  -3.683822e+000 4.220000e-001 3.853203e-001
    endloop
  endfacet
  facet normal -2.230705e-001 0.000000e+000 -9.748023e-001
    outer loop
      vertex  -3.683822e+000 4.220000e-001 3.853203e-001
      vertex  -2.000000e+000 1.000000e+000 0.000000e+000
      vertex  -2.000000e+000 -1.000000e+000 0.000000e+000
    endloop
  endfacet
  facet normal -3.246709e-001 -9.458271e-001 0.000000e+000
    outer loop
      vertex  -2.000000e+000 -1.000000e+000 1.000000e+000
      vertex  -3.683822e+000 -4.220000e-001 8.073204e-001
      vertex  -3.683822e+000 -4.220000e-001 3.853203e-001
    endloop
  endfacet
  facet normal -3.246709e-001 -9.458270e-001 -0.000000e+000
    outer loop
      vertex  -2.000000e+000 -1.000000e+000 1.000000e+000
      vertex  -3.683822e+000 -4.220000e-001 3.853203e-001
      vertex  -2.000000e+000 -1.000000e+000 0.000000e+000
    endloop
  endfacet
  facet normal -1.136880e-001 0.000000e+000 9.935165e-001
    outer loop
      vertex  -3.683822e+000 4.220000e-001 8.073204e-001
      vertex  -3.683822e+000 -4.220000e-001 8.073204e-001
      vertex  -2.000000e+000 -1.000000e+000 1.000000e+000
    endloop
  endfacet
  facet normal -1.136880e-001 0.000000e+000 9.935166e-001
    outer loop
      vertex  -2.000000e+000 -1.000000e+000 1.000000e+000
      vertex  -2.000000e+000 1.000000e+000 1.000000e+000
      vertex  -3.683822e+000 4.220000e-001 8.073204e-001
    endloop
  endfacet
  facet normal 0.000000e+000 0.000000e+000 1.000000e+000
    outer loop
      vertex  2.000000e+000 1.000000e+000 1.000000e+000
      vertex  1.098194e+000 1.000000e+000 1.000000e+000
      vertex  1.098194e+000 -1.000000e+000 1.000000e+000
    endloop
  endfacet
  facet normal 0.000000e+000 0.000000e+000 1.000000e+000
    outer loop
      vertex  2.000000e+000 1.000000e+000 1.000000e+000
      vertex  1.098194e+000 -1.000000e+000 1.000000e+000
      vertex  2.000000e+000 -1.000000e+000 1.000000e+000
    endloop
  endfacet
  facet normal 5.025271e-001 -0.000000e+000 8.645615e-001
    outer loop
      vertex  -1.827795e-002 -3.900000e-001 1.648951e+000
      vertex  1.098194e+000 -1.000000e+000 1.000000e+000
      vertex  -1.827795e-002 3.900000e-001 1.648951e+000
    endloop
  endfacet
  facet normal 5.025271e-001 -0.000000e+000 8.645614e-001
    outer loop
      vertex  1.098194e+000 -1.000000e+000 1.000000e+000
      vertex  1.098194e+000 1.000000e+000 1.000000e+000
      vertex  -1.827795e-002 3.900000e-001 1.648951e+000
    endloop
  endfacet
endsolid vcg
