solid STL generated by MeshLab
  facet normal -8.608842e-001 0.000000e+000 5.088007e-001
    outer loop
      vertex  -2.000000e+000 -1.000000e+000 1.000000e+000
      vertex  -1.616457e+000 -3.900000e-001 1.648951e+000
      vertex  -1.616457e+000 3.900000e-001 1.648951e+000
    endloop
  endfacet
  facet normal -8.608843e-001 0.000000e+000 5.088008e-001
    outer loop
      vertex  -1.616457e+000 3.900000e-001 1.648951e+000
      vertex  -2.000000e+000 1.000000e+000 1.000000e+000
      vertex  -2.000000e+000 -1.000000e+000 1.000000e+000
    endloop
  endfacet
  facet normal 0.000000e+000 0.000000e+000 -1.000000e+000
    outer loop
      vertex  -2.000000e+000 1.000000e+000 0.000000e+000
      vertex  2.000000e+000 1.000000e+000 0.000000e+000
      vertex  2.000000e+000 -1.000000e+000 0.000000e+000
    endloop
  endfacet
  facet normal 0.000000e+000 0.000000e+000 -1.000000e+000
    outer loop
      vertex  -2.000000e+000 1.000000e+000 0.000000e+000
      vertex  2.000000e+000 -1.000000e+000 0.000000e+000
      vertex  -2.000000e+000 -1.000000e+000 0.000000e+000
    endloop
  endfacet
  facet normal 0.000000e+000 -1.000000e+000 -0.000000e+000
    outer loop
      vertex  1.098194e+000 -1.000000e+000 1.000000e+000
      vertex  -2.000000e+000 -1.000000e+000 0.000000e+000
      vertex  2.000000e+000 -1.000000e+000 0.000000e+000
    endloop
  endfacet
  facet normal 0.000000e+000 -1.000000e+000 0.000000e+000
    outer loop
      vertex  1.098194e+000 -1.000000e+000 1.000000e+000
      vertex  2.000000e+000 -1.000000e+000 0.000000e+000
      vertex  2.000000e+000 -1.000000e+000 1.000000e+000
    endloop
  endfacet
  facet normal -0.000000e+000 -1.000000e+000 0.000000e+000
    outer loop
      vertex  1.098194e+000 -1.000000e+000 1.000000e+000
      vertex  -2.000000e+000 -1.000000e+000 1.000000e+000
      vertex  -2.000000e+000 -1.000000e+000 0.000000e+000
    endloop
  endfacet
  facet normal 0.000000e+000 7.286353e-001 6.849020e-001
    outer loop
      vertex  -2.000000e+000 1.000000e+000 1.000000e+000
      vertex  -1.616457e+000 3.900000e-001 1.648951e+000
      vertex  -2.831232e-001 3.900000e-001 1.648951e+000
    endloop
  endfacet
  facet normal -0.000000e+000 7.286352e-001 6.849020e-001
    outer loop
      vertex  -2.000000e+000 1.000000e+000 1.000000e+000
      vertex  -2.831232e-001 3.900000e-001 1.648951e+000
      vertex  1.098194e+000 1.000000e+000 1.000000e+000
    endloop
  endfacet
  facet normal 0.000000e+000 0.000000e+000 1.000000e+000
    outer loop
      vertex  -1.616457e+000 -3.900000e-001 1.648951e+000
      vertex  -2.831232e-001 -3.900000e-001 1.648951e+000
      vertex  -2.831232e-001 3.900000e-001 1.648951e+000
    endloop
  endfacet
  facet normal 0.000000e+000 0.000000e+000 1.000000e+000
    outer loop
      vertex  -2.831232e-001 3.900000e-001 1.648951e+000
      vertex  -1.616457e+000 3.900000e-001 1.648951e+000
      vertex  -1.616457e+000 -3.900000e-001 1.648951e+000
    endloop
  endfacet
  facet normal -0.000000e+000 1.000000e+000 0.000000e+000
    outer loop
      vertex  1.098194e+000 1.000000e+000 1.000000e+000
      vertex  2.000000e+000 1.000000e+000 1.000000e+000
      vertex  2.000000e+000 1.000000e+000 0.000000e+000
    endloop
  endfacet
  facet normal 0.000000e+000 1.000000e+000 0.000000e+000
    outer loop
      vertex  -2.000000e+000 1.000000e+000 0.000000e+000
      vertex  -2.000000e+000 1.000000e+000 1.000000e+000
      vertex  1.098194e+000 1.000000e+000 1.000000e+000
    endloop
  endfacet
  facet normal 0.000000e+000 1.000000e+000 0.000000e+000
    outer loop
      vertex  -2.000000e+000 1.000000e+000 0.000000e+000
      vertex  1.098194e+000 1.000000e+000 1.000000e+000
      vertex  2.000000e+000 1.000000e+000 0.000000e+000
    endloop
  endfacet
  facet normal 0.000000e+000 -7.286352e-001 6.849020e-001
    outer loop
      vertex  -2.000000e+000 -1.000000e+000 1.000000e+000
      vertex  1.098194e+000 -1.000000e+000 1.000000e+000
      vertex  -2.831232e-001 -3.900000e-001 1.648951e+000
    endloop
  endfacet
  facet normal 0.000000e+000 -7.286353e-001 6.849020e-001
    outer loop
      vertex  -2.000000e+000 -1.000000e+000 1.000000e+000
      vertex  -2.831232e-001 -3.900000e-001 1.648951e+000
      vertex  -1.616457e+000 -3.900000e-001 1.648951e+000
    endloop
  endfacet
  facet normal 5.424685e-001 0.000000e+000 -8.400761e-001
    outer loop
      vertex  2.410538e+000 4.698000e-001 2.651000e-001
      vertex  2.410538e+000 -4.698000e-001 2.651000e-001
      vertex  2.000000e+000 -1.000000e+000 0.000000e+000
    endloop
  endfacet
  facet normal 5.424685e-001 0.000000e+000 -8.400761e-001
    outer loop
      vertex  2.000000e+000 -1.000000e+000 0.000000e+000
      vertex  2.000000e+000 1.000000e+000 0.000000e+000
      vertex  2.410538e+000 4.698000e-001 2.651000e-001
    endloop
  endfacet
  facet normal 7.906796e-001 6.122301e-001 0.000000e+000
    outer loop
      vertex  2.410538e+000 4.698000e-001 7.349000e-001
      vertex  2.410538e+000 4.698000e-001 2.651000e-001
      vertex  2.000000e+000 1.000000e+000 0.000000e+000
    endloop
  endfacet
  facet normal 7.906797e-001 6.122301e-001 -0.000000e+000
    outer loop
      vertex  2.000000e+000 1.000000e+000 0.000000e+000
      vertex  2.000000e+000 1.000000e+000 1.000000e+000
      vertex  2.410538e+000 4.698000e-001 7.349000e-001
    endloop
  endfacet
  facet normal 5.424685e-001 0.000000e+000 8.400761e-001
    outer loop
      vertex  2.000000e+000 -1.000000e+000 1.000000e+000
      vertex  2.410538e+000 -4.698000e-001 7.349000e-001
      vertex  2.410538e+000 4.698000e-001 7.349000e-001
    endloop
  endfacet
  facet normal 5.424685e-001 0.000000e+000 8.400761e-001
    outer loop
      vertex  2.410538e+000 4.698000e-001 7.349000e-001
      vertex  2.000000e+000 1.000000e+000 1.000000e+000
      vertex  2.000000e+000 -1.000000e+000 1.000000e+000
    endloop
  endfacet
  facet normal 7.906797e-001 -6.122301e-001 0.000000e+000
    outer loop
      vertex  2.000000e+000 -1.000000e+000 0.000000e+000
      vertex  2.410538e+000 -4.698000e-001 2.651000e-001
      vertex  2.410538e+000 -4.698000e-001 7.349000e-001
    endloop
  endfacet
  facet normal 7.906797e-001 -6.122301e-001 0.000000e+000
    outer loop
      vertex  2.410538e+000 -4.698000e-001 7.349000e-001
      vertex  2.000000e+000 -1.000000e+000 1.000000e+000
      vertex  2.000000e+000 -1.000000e+000 0.000000e+000
    endloop
  endfacet
  facet normal -3.246709e-001 9.458270e-001 0.000000e+000
    outer loop
      vertex  -2.000000e+000 1.000000e+000 1.000000e+000
      vertex  -2.000000e+000 1.000000e+000 0.000000e+000
      vertex  -3.683822e+000 4.220000e-001 3.853203e-001
    endloop
  endfacet
  facet normal -3.246709e-001 9.458271e-001 0.000000e+000
    outer loop
      vertex  -2.000000e+000 1.000000e+000 1.000000e+000
      vertex  -3.683822e+000 4.220000e-001 3.853203e-001
      vertex  -3.683822e+000 4.220000e-001 8.073204e-001
    endloop
  endfacet
  facet normal -2.230706e-001 0.000000e+000 -9.748024e-001
    outer loop
      vertex  -2.000000e+000 -1.000000e+000 0.000000e+000
      vertex  -3.683822e+000 -4.220000e-001 3.853203e-001
      vertex  -3.683822e+000 4.220000e-001 3.853203e-001
    endloop
  endfacet
  facet normal -2.230705e-001 0.000000e+000 -9.748023e-001
    outer loop
      vertex  -3.683822e+000 4.220000e-001 3.853203e-001
      vertex  -2.000000e+000 1.000000e+000 0.000000e+000
      vertex  -2.000000e+000 -1.000000e+000 0.000000e+000
    endloop
  endfacet
  facet normal -3.246709e-001 -9.458271e-001 0.000000e+000
    outer loop
      vertex  -2.000000e+000 -1.000000e+000 1.000000e+000
      vertex  -3.683822e+000 -4.220000e-001 8.073204e-001
      vertex  -3.683822e+000 -4.220000e-001 3.853203e-001
    endloop
  endfacet
  facet normal -3.246709e-001 -9.458270e-001 -0.000000e+000
    outer loop
      vertex  -2.000000e+000 -1.000000e+000 1.000000e+000
      vertex  -3.683822e+000 -4.220000e-001 3.853203e-001
      vertex  -2.000000e+000 -1.000000e+000 0.000000e+000
    endloop
  endfacet
  facet normal -1.136880e-001 0.000000e+000 9.935165e-001
    outer loop
      vertex  -3.683822e+000 4.220000e-001 8.073204e-001
      vertex  -3.683822e+000 -4.220000e-001 8.073204e-001
      vertex  -2.000000e+000 -1.000000e+000 1.000000e+000
    endloop
  endfacet
  facet normal -1.136880e-001 0.000000e+000 9.935166e-001
    outer loop
      vertex  -2.000000e+000 -1.000000e+000 1.000000e+000
      vertex  -2.000000e+000 1.000000e+000 1.000000e+000
      vertex  -3.683822e+000 4.220000e-001 8.073204e-001
    endloop
  endfacet
  facet normal 0.000000e+000 0.000000e+000 1.000000e+000
    outer loop
      vertex  2.000000e+000 1.000000e+000 1.000000e+000
      vertex  1.098194e+000 1.000000e+000 1.000000e+000
      vertex  1.098194e+000 -1.000000e+000 1.000000e+000
    endloop
  endfacet
  facet normal 0.000000e+000 0.000000e+000 1.000000e+000
    outer loop
      vertex  2.000000e+000 1.000000e+000 1.000000e+000
      vertex  1.098194e+000 -1.000000e+000 1.000000e+000
      vertex  2.000000e+000 -1.000000e+000 1.000000e+000
    endloop
  endfacet
  facet normal 4.252169e-001 -0.000000e+000 9.050915e-001
    outer loop
      vertex  -2.831232e-001 -3.900000e-001 1.648951e+000
      vertex  1.098194e+000 -1.000000e+000 1.000000e+000
      vertex  -2.831232e-001 3.900000e-001 1.648951e+000
    endloop
  endfacet
  facet normal 4.252169e-001 -0.000000e+000 9.050915e-001
    outer loop
      vertex  1.098194e+000 -1.000000e+000 1.000000e+000
      vertex  1.098194e+000 1.000000e+000 1.000000e+000
      vertex  -2.831232e-001 3.900000e-001 1.648951e+000
    endloop
  endfacet
  facet normal 6.667569e-001 0.000000e+000 -7.452754e-001
    outer loop
      vertex  2.410538e+000 4.698000e-001 2.651000e-001
      vertex  2.673101e+000 0.000000e+000 5.000000e-001
      vertex  2.410538e+000 -4.698000e-001 2.651000e-001
    endloop
  endfacet
  facet normal 8.729221e-001 4.878595e-001 0.000000e+000
    outer loop
      vertex  2.410538e+000 4.698000e-001 7.349000e-001
      vertex  2.673101e+000 0.000000e+000 5.000000e-001
      vertex  2.410538e+000 4.698000e-001 2.651000e-001
    endloop
  endfacet
  facet normal 6.667569e-001 -0.000000e+000 7.452754e-001
    outer loop
      vertex  2.410538e+000 -4.698000e-001 7.349000e-001
      vertex  2.673101e+000 0.000000e+000 5.000000e-001
      vertex  2.410538e+000 4.698000e-001 7.349000e-001
    endloop
  endfacet
  facet normal 8.729221e-001 -4.878595e-001 0.000000e+000
    outer loop
      vertex  2.410538e+000 -4.698000e-001 2.651000e-001
      vertex  2.673101e+000 0.000000e+000 5.000000e-001
      vertex  2.410538e+000 -4.698000e-001 7.349000e-001
    endloop
  endfacet
  facet normal -3.835821e-001 9.235068e-001 0.000000e+000
    outer loop
      vertex  -3.683822e+000 4.220000e-001 3.853203e-001
      vertex  -4.699823e+000 0.000000e+000 5.963203e-001
      vertex  -3.683822e+000 4.220000e-001 8.073204e-001
    endloop
  endfacet
  facet normal -2.033382e-001 0.000000e+000 -9.791085e-001
    outer loop
      vertex  -3.683822e+000 -4.220000e-001 3.853203e-001
      vertex  -4.699823e+000 0.000000e+000 5.963203e-001
      vertex  -3.683822e+000 4.220000e-001 3.853203e-001
    endloop
  endfacet
  facet normal -3.835821e-001 -9.235068e-001 -0.000000e+000
    outer loop
      vertex  -3.683822e+000 -4.220000e-001 8.073204e-001
      vertex  -4.699823e+000 0.000000e+000 5.963203e-001
      vertex  -3.683822e+000 -4.220000e-001 3.853203e-001
    endloop
  endfacet
  facet normal -2.033383e-001 0.000000e+000 9.791085e-001
    outer loop
      vertex  -3.683822e+000 4.220000e-001 8.073204e-001
      vertex  -4.699823e+000 0.000000e+000 5.963203e-001
      vertex  -3.683822e+000 -4.220000e-001 8.073204e-001
    endloop
  endfacet
endsolid vcg
