solid vcg
  facet normal  0.000000e+00  0.000000e+00 -1.000000e+00
    outer loop
      vertex  -2.000000e+00  1.000000e+00  0.000000e+00
      vertex   2.000000e+00  1.000000e+00  0.000000e+00
      vertex   2.000000e+00 -1.000000e+00  0.000000e+00
    endloop
  endfacet
  facet normal  0.000000e+00  0.000000e+00 -1.000000e+00
    outer loop
      vertex  -2.000000e+00  1.000000e+00  0.000000e+00
      vertex   2.000000e+00 -1.000000e+00  0.000000e+00
      vertex  -2.000000e+00 -1.000000e+00  0.000000e+00
    endloop
  endfacet
  facet normal  0.000000e+00 -1.000000e+00  0.000000e+00
    outer loop
      vertex  -2.000000e+00 -1.000000e+00  0.000000e+00
      vertex   2.000000e+00 -1.000000e+00  0.000000e+00
      vertex   2.000000e+00 -1.000000e+00  1.000000e+00
    endloop
  endfacet
  facet normal -0.000000e+00 -1.000000e+00  0.000000e+00
    outer loop
      vertex   2.000000e+00 -1.000000e+00  1.000000e+00
      vertex  -2.000000e+00 -1.000000e+00  1.000000e+00
      vertex  -2.000000e+00 -1.000000e+00  0.000000e+00
    endloop
  endfacet
  facet normal -0.000000e+00  1.000000e+00  0.000000e+00
    outer loop
      vertex  -2.000000e+00  1.000000e+00  1.000000e+00
      vertex   2.000000e+00  1.000000e+00  1.000000e+00
      vertex   2.000000e+00  1.000000e+00  0.000000e+00
    endloop
  endfacet
  facet normal  0.000000e+00  1.000000e+00  0.000000e+00
    outer loop
      vertex  -2.000000e+00  1.000000e+00  1.000000e+00
      vertex   2.000000e+00  1.000000e+00  0.000000e+00
      vertex  -2.000000e+00  1.000000e+00  0.000000e+00
    endloop
  endfacet
  facet normal  0.000000e+00  0.000000e+00  1.000000e+00
    outer loop
      vertex   1.313063e+00  1.723770e-01  1.552771e+00
      vertex   5.914326e-01  1.723770e-01  1.552771e+00
      vertex   5.914326e-01 -1.723770e-01  1.552771e+00
    endloop
  endfacet
  facet normal  0.000000e+00  0.000000e+00  1.000000e+00
    outer loop
      vertex   1.313063e+00  1.723770e-01  1.552771e+00
      vertex   5.914326e-01 -1.723770e-01  1.552771e+00
      vertex   1.313063e+00 -1.723770e-01  1.552771e+00
    endloop
  endfacet
  facet normal  0.000000e+00  0.000000e+00  1.000000e+00
    outer loop
      vertex   1.934953e+00  6.420000e-01  1.000000e+00
      vertex   1.934953e+00 -6.420000e-01  1.000000e+00
      vertex   2.000000e+00 -1.000000e+00  1.000000e+00
    endloop
  endfacet
  facet normal  0.000000e+00 -0.000000e+00  1.000000e+00
    outer loop
      vertex   2.000000e+00 -1.000000e+00  1.000000e+00
      vertex   2.000000e+00  1.000000e+00  1.000000e+00
      vertex   1.934953e+00  6.420000e-01  1.000000e+00
    endloop
  endfacet
  facet normal  0.000000e+00  0.000000e+00  1.000000e+00
    outer loop
      vertex  -1.604516e+00  6.420000e-01  1.000000e+00
      vertex   1.934953e+00  6.420000e-01  1.000000e+00
      vertex   2.000000e+00  1.000000e+00  1.000000e+00
    endloop
  endfacet
  facet normal  0.000000e+00  0.000000e+00  1.000000e+00
    outer loop
      vertex   2.000000e+00  1.000000e+00  1.000000e+00
      vertex  -2.000000e+00  1.000000e+00  1.000000e+00
      vertex  -1.604516e+00  6.420000e-01  1.000000e+00
    endloop
  endfacet
  facet normal  0.000000e+00  0.000000e+00  1.000000e+00
    outer loop
      vertex  -2.000000e+00 -1.000000e+00  1.000000e+00
      vertex  -1.604516e+00 -6.420000e-01  1.000000e+00
      vertex  -1.604516e+00  6.420000e-01  1.000000e+00
    endloop
  endfacet
  facet normal  0.000000e+00  0.000000e+00  1.000000e+00
    outer loop
      vertex  -1.604516e+00  6.420000e-01  1.000000e+00
      vertex  -2.000000e+00  1.000000e+00  1.000000e+00
      vertex  -2.000000e+00 -1.000000e+00  1.000000e+00
    endloop
  endfacet
  facet normal  0.000000e+00  0.000000e+00  1.000000e+00
    outer loop
      vertex   2.000000e+00 -1.000000e+00  1.000000e+00
      vertex   1.934953e+00 -6.420000e-01  1.000000e+00
      vertex  -1.604516e+00 -6.420000e-01  1.000000e+00
    endloop
  endfacet
  facet normal  0.000000e+00  0.000000e+00  1.000000e+00
    outer loop
      vertex   2.000000e+00 -1.000000e+00  1.000000e+00
      vertex  -1.604516e+00 -6.420000e-01  1.000000e+00
      vertex  -2.000000e+00 -1.000000e+00  1.000000e+00
    endloop
  endfacet
  facet normal  6.643501e-01  0.000000e+00  7.474216e-01
    outer loop
      vertex   1.313063e+00  1.723770e-01  1.552771e+00
      vertex   1.313063e+00 -1.723770e-01  1.552771e+00
      vertex   1.934953e+00 -6.420000e-01  1.000000e+00
    endloop
  endfacet
  facet normal  6.643500e-01 -0.000000e+00  7.474216e-01
    outer loop
      vertex   1.934953e+00 -6.420000e-01  1.000000e+00
      vertex   1.934953e+00  6.420000e-01  1.000000e+00
      vertex   1.313063e+00  1.723770e-01  1.552771e+00
    endloop
  endfacet
  facet normal -0.000000e+00  7.620974e-01  6.474625e-01
    outer loop
      vertex   5.914326e-01  1.723770e-01  1.552771e+00
      vertex   1.313063e+00  1.723770e-01  1.552771e+00
      vertex   1.934953e+00  6.420000e-01  1.000000e+00
    endloop
  endfacet
  facet normal  0.000000e+00  7.620974e-01  6.474625e-01
    outer loop
      vertex   1.934953e+00  6.420000e-01  1.000000e+00
      vertex  -1.604516e+00  6.420000e-01  1.000000e+00
      vertex   5.914326e-01  1.723770e-01  1.552771e+00
    endloop
  endfacet
  facet normal -2.441080e-01  0.000000e+00  9.697480e-01
    outer loop
      vertex  -1.604516e+00 -6.420000e-01  1.000000e+00
      vertex   5.914326e-01 -1.723770e-01  1.552771e+00
      vertex   5.914326e-01  1.723770e-01  1.552771e+00
    endloop
  endfacet
  facet normal -2.441080e-01  0.000000e+00  9.697480e-01
    outer loop
      vertex   5.914326e-01  1.723770e-01  1.552771e+00
      vertex  -1.604516e+00  6.420000e-01  1.000000e+00
      vertex  -1.604516e+00 -6.420000e-01  1.000000e+00
    endloop
  endfacet
  facet normal  0.000000e+00 -7.620973e-01  6.474625e-01
    outer loop
      vertex   1.934953e+00 -6.420000e-01  1.000000e+00
      vertex   1.313063e+00 -1.723770e-01  1.552771e+00
      vertex   5.914326e-01 -1.723770e-01  1.552771e+00
    endloop
  endfacet
  facet normal  0.000000e+00 -7.620973e-01  6.474624e-01
    outer loop
      vertex   5.914326e-01 -1.723770e-01  1.552771e+00
      vertex  -1.604516e+00 -6.420000e-01  1.000000e+00
      vertex   1.934953e+00 -6.420000e-01  1.000000e+00
    endloop
  endfacet
  facet normal  0.000000e+00  1.000000e+00  0.000000e+00
    outer loop
      vertex  -2.000000e+00  1.000000e+00  1.000000e+00
      vertex  -2.000000e+00  1.000000e+00  0.000000e+00
      vertex  -3.405368e+00  1.000000e+00  9.052676e-01
    endloop
  endfacet
  facet normal  0.000000e+00  1.000000e+00  0.000000e+00
    outer loop
      vertex  -2.000000e+00  1.000000e+00  1.000000e+00
      vertex  -3.405368e+00  1.000000e+00  9.052676e-01
      vertex  -3.405368e+00  1.000000e+00  1.000000e+00
    endloop
  endfacet
  facet normal -5.415264e-01  0.000000e+00 -8.406837e-01
    outer loop
      vertex  -2.000000e+00 -1.000000e+00  0.000000e+00
      vertex  -3.405368e+00 -1.000000e+00  9.052676e-01
      vertex  -3.405368e+00  1.000000e+00  9.052676e-01
    endloop
  endfacet
  facet normal -5.415264e-01  0.000000e+00 -8.406837e-01
    outer loop
      vertex  -3.405368e+00  1.000000e+00  9.052676e-01
      vertex  -2.000000e+00  1.000000e+00  0.000000e+00
      vertex  -2.000000e+00 -1.000000e+00  0.000000e+00
    endloop
  endfacet
  facet normal -0.000000e+00 -1.000000e+00  0.000000e+00
    outer loop
      vertex  -2.000000e+00 -1.000000e+00  1.000000e+00
      vertex  -3.405368e+00 -1.000000e+00  1.000000e+00
      vertex  -3.405368e+00 -1.000000e+00  9.052676e-01
    endloop
  endfacet
  facet normal  0.000000e+00 -1.000000e+00 -0.000000e+00
    outer loop
      vertex  -2.000000e+00 -1.000000e+00  1.000000e+00
      vertex  -3.405368e+00 -1.000000e+00  9.052676e-01
      vertex  -2.000000e+00 -1.000000e+00  0.000000e+00
    endloop
  endfacet
  facet normal  0.000000e+00  0.000000e+00  1.000000e+00
    outer loop
      vertex  -2.000000e+00  1.000000e+00  1.000000e+00
      vertex  -3.405368e+00  1.000000e+00  1.000000e+00
      vertex  -3.405368e+00 -1.000000e+00  1.000000e+00
    endloop
  endfacet
  facet normal  0.000000e+00  0.000000e+00  1.000000e+00
    outer loop
      vertex  -2.000000e+00  1.000000e+00  1.000000e+00
      vertex  -3.405368e+00 -1.000000e+00  1.000000e+00
      vertex  -2.000000e+00 -1.000000e+00  1.000000e+00
    endloop
  endfacet
  facet normal -0.000000e+00  0.000000e+00 -1.000000e+00
    outer loop
      vertex   5.188305e+00 -2.320000e-01  0.000000e+00
      vertex   3.594153e+00 -8.500800e-01  0.000000e+00
      vertex   5.188305e+00  2.320000e-01  0.000000e+00
    endloop
  endfacet
  facet normal  0.000000e+00  0.000000e+00 -1.000000e+00
    outer loop
      vertex   3.594153e+00 -8.500800e-01  0.000000e+00
      vertex   3.594153e+00  8.500800e-01  0.000000e+00
      vertex   5.188305e+00  2.320000e-01  0.000000e+00
    endloop
  endfacet
  facet normal  3.614969e-01  9.323732e-01 -0.000000e+00
    outer loop
      vertex   5.188305e+00  2.320000e-01  0.000000e+00
      vertex   3.594153e+00  8.500800e-01  0.000000e+00
      vertex   5.188305e+00  2.320000e-01  5.375320e-02
    endloop
  endfacet
  facet normal  3.614969e-01  9.323733e-01 -0.000000e+00
    outer loop
      vertex   3.594153e+00  8.500800e-01  0.000000e+00
      vertex   3.594153e+00  8.500800e-01  7.243218e-01
      vertex   5.188305e+00  2.320000e-01  5.375320e-02
    endloop
  endfacet
  facet normal  3.877360e-01  0.000000e+00  9.217705e-01
    outer loop
      vertex   5.188305e+00  2.320000e-01  5.375320e-02
      vertex   3.594153e+00  8.500800e-01  7.243218e-01
      vertex   3.594153e+00 -8.500800e-01  7.243218e-01
    endloop
  endfacet
  facet normal  3.877360e-01  0.000000e+00  9.217705e-01
    outer loop
      vertex   5.188305e+00  2.320000e-01  5.375320e-02
      vertex   3.594153e+00 -8.500800e-01  7.243218e-01
      vertex   5.188305e+00 -2.320000e-01  5.375320e-02
    endloop
  endfacet
  facet normal  3.614969e-01 -9.323733e-01  0.000000e+00
    outer loop
      vertex   5.188305e+00 -2.320000e-01  5.375320e-02
      vertex   3.594153e+00 -8.500800e-01  7.243218e-01
      vertex   3.594153e+00 -8.500800e-01  0.000000e+00
    endloop
  endfacet
  facet normal  3.614969e-01 -9.323732e-01  0.000000e+00
    outer loop
      vertex   5.188305e+00 -2.320000e-01  5.375320e-02
      vertex   3.594153e+00 -8.500800e-01  0.000000e+00
      vertex   5.188305e+00 -2.320000e-01  0.000000e+00
    endloop
  endfacet
  facet normal  1.000000e+00  0.000000e+00 -0.000000e+00
    outer loop
      vertex   5.188305e+00  2.320000e-01  0.000000e+00
      vertex   5.188305e+00  2.320000e-01  5.375320e-02
      vertex   5.188305e+00 -2.320000e-01  5.375320e-02
    endloop
  endfacet
  facet normal  1.000000e+00  0.000000e+00  0.000000e+00
    outer loop
      vertex   5.188305e+00  2.320000e-01  0.000000e+00
      vertex   5.188305e+00 -2.320000e-01  5.375320e-02
      vertex   5.188305e+00 -2.320000e-01  0.000000e+00
    endloop
  endfacet
  facet normal  0.000000e+00 -0.000000e+00 -1.000000e+00
    outer loop
      vertex   3.594153e+00  8.500800e-01  0.000000e+00
      vertex   3.594153e+00 -8.500800e-01  0.000000e+00
      vertex   2.000000e+00 -1.000000e+00  0.000000e+00
    endloop
  endfacet
  facet normal  0.000000e+00  0.000000e+00 -1.000000e+00
    outer loop
      vertex   2.000000e+00 -1.000000e+00  0.000000e+00
      vertex   2.000000e+00  1.000000e+00  0.000000e+00
      vertex   3.594153e+00  8.500800e-01  0.000000e+00
    endloop
  endfacet
  facet normal  9.363054e-02  9.956070e-01  0.000000e+00
    outer loop
      vertex   3.594153e+00  8.500800e-01  7.243218e-01
      vertex   3.594153e+00  8.500800e-01  0.000000e+00
      vertex   2.000000e+00  1.000000e+00  0.000000e+00
    endloop
  endfacet
  facet normal  9.363055e-02  9.956070e-01 -0.000000e+00
    outer loop
      vertex   2.000000e+00  1.000000e+00  0.000000e+00
      vertex   2.000000e+00  1.000000e+00  1.000000e+00
      vertex   3.594153e+00  8.500800e-01  7.243218e-01
    endloop
  endfacet
  facet normal  1.704017e-01  0.000000e+00  9.853746e-01
    outer loop
      vertex   2.000000e+00 -1.000000e+00  1.000000e+00
      vertex   3.594153e+00 -8.500800e-01  7.243218e-01
      vertex   3.594153e+00  8.500800e-01  7.243218e-01
    endloop
  endfacet
  facet normal  1.704017e-01  0.000000e+00  9.853747e-01
    outer loop
      vertex   3.594153e+00  8.500800e-01  7.243218e-01
      vertex   2.000000e+00  1.000000e+00  1.000000e+00
      vertex   2.000000e+00 -1.000000e+00  1.000000e+00
    endloop
  endfacet
  facet normal  9.363054e-02 -9.956070e-01  0.000000e+00
    outer loop
      vertex   2.000000e+00 -1.000000e+00  0.000000e+00
      vertex   3.594153e+00 -8.500800e-01  0.000000e+00
      vertex   3.594153e+00 -8.500800e-01  7.243218e-01
    endloop
  endfacet
  facet normal  9.363055e-02 -9.956070e-01  0.000000e+00
    outer loop
      vertex   3.594153e+00 -8.500800e-01  7.243218e-01
      vertex   2.000000e+00 -1.000000e+00  1.000000e+00
      vertex   2.000000e+00 -1.000000e+00  0.000000e+00
    endloop
  endfacet
  facet normal -1.000000e+00  0.000000e+00  0.000000e+00
    outer loop
      vertex  -3.405368e+00 -1.000000e+00  9.052676e-01
      vertex  -3.405368e+00 -1.000000e+00  1.000000e+00
      vertex  -3.405368e+00  1.000000e+00  1.000000e+00
    endloop
  endfacet
  facet normal -1.000000e+00  0.000000e+00 -0.000000e+00
    outer loop
      vertex  -3.405368e+00  1.000000e+00  1.000000e+00
      vertex  -3.405368e+00  1.000000e+00  9.052676e-01
      vertex  -3.405368e+00 -1.000000e+00  9.052676e-01
    endloop
  endfacet
endsolid vcg
