solid STL generated by MeshLab
  facet normal -4.376304e-001 0.000000e+000 8.991550e-001
    outer loop
      vertex  -2.000000e+000 -1.000000e+000 1.000000e+000
      vertex  -6.666667e-001 -3.900000e-001 1.648951e+000
      vertex  -6.666667e-001 3.900000e-001 1.648951e+000
    endloop
  endfacet
  facet normal -4.376304e-001 0.000000e+000 8.991549e-001
    outer loop
      vertex  -6.666667e-001 3.900000e-001 1.648951e+000
      vertex  -2.000000e+000 1.000000e+000 1.000000e+000
      vertex  -2.000000e+000 -1.000000e+000 1.000000e+000
    endloop
  endfacet
  facet normal 0.000000e+000 0.000000e+000 -1.000000e+000
    outer loop
      vertex  -2.000000e+000 1.000000e+000 0.000000e+000
      vertex  2.000000e+000 1.000000e+000 0.000000e+000
      vertex  2.000000e+000 -1.000000e+000 0.000000e+000
    endloop
  endfacet
  facet normal 0.000000e+000 0.000000e+000 -1.000000e+000
    outer loop
      vertex  -2.000000e+000 1.000000e+000 0.000000e+000
      vertex  2.000000e+000 -1.000000e+000 0.000000e+000
      vertex  -2.000000e+000 -1.000000e+000 0.000000e+000
    endloop
  endfacet
  facet normal 0.000000e+000 -1.000000e+000 0.000000e+000
    outer loop
      vertex  -2.000000e+000 -1.000000e+000 0.000000e+000
      vertex  2.000000e+000 -1.000000e+000 0.000000e+000
      vertex  2.000000e+000 -1.000000e+000 1.000000e+000
    endloop
  endfacet
  facet normal -0.000000e+000 -1.000000e+000 0.000000e+000
    outer loop
      vertex  2.000000e+000 -1.000000e+000 1.000000e+000
      vertex  -2.000000e+000 -1.000000e+000 1.000000e+000
      vertex  -2.000000e+000 -1.000000e+000 0.000000e+000
    endloop
  endfacet
  facet normal -0.000000e+000 7.286353e-001 6.849020e-001
    outer loop
      vertex  -6.666667e-001 3.900000e-001 1.648951e+000
      vertex  6.666667e-001 3.900000e-001 1.648951e+000
      vertex  2.000000e+000 1.000000e+000 1.000000e+000
    endloop
  endfacet
  facet normal 0.000000e+000 7.286353e-001 6.849020e-001
    outer loop
      vertex  2.000000e+000 1.000000e+000 1.000000e+000
      vertex  -2.000000e+000 1.000000e+000 1.000000e+000
      vertex  -6.666667e-001 3.900000e-001 1.648951e+000
    endloop
  endfacet
  facet normal -1.000000e+000 0.000000e+000 0.000000e+000
    outer loop
      vertex  -5.597401e+000 -1.000000e+000 8.070703e-001
      vertex  -5.597401e+000 -1.000000e+000 1.000000e+000
      vertex  -5.597401e+000 1.000000e+000 1.000000e+000
    endloop
  endfacet
  facet normal -1.000000e+000 0.000000e+000 -0.000000e+000
    outer loop
      vertex  -5.597401e+000 1.000000e+000 1.000000e+000
      vertex  -5.597401e+000 1.000000e+000 8.070703e-001
      vertex  -5.597401e+000 -1.000000e+000 8.070703e-001
    endloop
  endfacet
  facet normal 9.875589e-003 0.000000e+000 -9.999512e-001
    outer loop
      vertex  3.029347e+000 8.780000e-001 1.016591e-002
      vertex  3.029347e+000 -8.780000e-001 1.016591e-002
      vertex  2.000000e+000 -1.000000e+000 0.000000e+000
    endloop
  endfacet
  facet normal 9.875590e-003 0.000000e+000 -9.999512e-001
    outer loop
      vertex  2.000000e+000 -1.000000e+000 0.000000e+000
      vertex  2.000000e+000 1.000000e+000 0.000000e+000
      vertex  3.029347e+000 8.780000e-001 1.016591e-002
    endloop
  endfacet
  facet normal 1.176979e-001 9.930494e-001 0.000000e+000
    outer loop
      vertex  3.029347e+000 8.780000e-001 8.780000e-001
      vertex  3.029347e+000 8.780000e-001 1.016591e-002
      vertex  2.000000e+000 1.000000e+000 0.000000e+000
    endloop
  endfacet
  facet normal 1.176979e-001 9.930494e-001 -0.000000e+000
    outer loop
      vertex  2.000000e+000 1.000000e+000 0.000000e+000
      vertex  2.000000e+000 1.000000e+000 1.000000e+000
      vertex  3.029347e+000 8.780000e-001 8.780000e-001
    endloop
  endfacet
  facet normal 1.176979e-001 0.000000e+000 9.930494e-001
    outer loop
      vertex  2.000000e+000 -1.000000e+000 1.000000e+000
      vertex  3.029347e+000 -8.780000e-001 8.780000e-001
      vertex  3.029347e+000 8.780000e-001 8.780000e-001
    endloop
  endfacet
  facet normal 1.176979e-001 0.000000e+000 9.930494e-001
    outer loop
      vertex  3.029347e+000 8.780000e-001 8.780000e-001
      vertex  2.000000e+000 1.000000e+000 1.000000e+000
      vertex  2.000000e+000 -1.000000e+000 1.000000e+000
    endloop
  endfacet
  facet normal 1.176979e-001 -9.930494e-001 0.000000e+000
    outer loop
      vertex  2.000000e+000 -1.000000e+000 0.000000e+000
      vertex  3.029347e+000 -8.780000e-001 1.016591e-002
      vertex  3.029347e+000 -8.780000e-001 8.780000e-001
    endloop
  endfacet
  facet normal 1.176979e-001 -9.930494e-001 0.000000e+000
    outer loop
      vertex  3.029347e+000 -8.780000e-001 8.780000e-001
      vertex  2.000000e+000 -1.000000e+000 1.000000e+000
      vertex  2.000000e+000 -1.000000e+000 0.000000e+000
    endloop
  endfacet
  facet normal -3.024311e-001 0.000000e+000 -9.531713e-001
    outer loop
      vertex  -2.000000e+000 -1.000000e+000 0.000000e+000
      vertex  -3.199134e+000 -1.000000e+000 3.804723e-001
      vertex  -3.199134e+000 1.000000e+000 3.804723e-001
    endloop
  endfacet
  facet normal -3.024311e-001 0.000000e+000 -9.531713e-001
    outer loop
      vertex  -3.199134e+000 1.000000e+000 3.804723e-001
      vertex  -2.000000e+000 1.000000e+000 0.000000e+000
      vertex  -2.000000e+000 -1.000000e+000 0.000000e+000
    endloop
  endfacet
  facet normal -0.000000e+000 -1.000000e+000 0.000000e+000
    outer loop
      vertex  -2.000000e+000 -1.000000e+000 1.000000e+000
      vertex  -3.199134e+000 -1.000000e+000 1.000000e+000
      vertex  -3.199134e+000 -1.000000e+000 3.804723e-001
    endloop
  endfacet
  facet normal 0.000000e+000 -1.000000e+000 -0.000000e+000
    outer loop
      vertex  -2.000000e+000 -1.000000e+000 1.000000e+000
      vertex  -3.199134e+000 -1.000000e+000 3.804723e-001
      vertex  -2.000000e+000 -1.000000e+000 0.000000e+000
    endloop
  endfacet
  facet normal 0.000000e+000 0.000000e+000 1.000000e+000
    outer loop
      vertex  -2.000000e+000 1.000000e+000 1.000000e+000
      vertex  -3.199134e+000 1.000000e+000 1.000000e+000
      vertex  -3.199134e+000 -1.000000e+000 1.000000e+000
    endloop
  endfacet
  facet normal 0.000000e+000 0.000000e+000 1.000000e+000
    outer loop
      vertex  -2.000000e+000 1.000000e+000 1.000000e+000
      vertex  -3.199134e+000 -1.000000e+000 1.000000e+000
      vertex  -2.000000e+000 -1.000000e+000 1.000000e+000
    endloop
  endfacet
  facet normal 0.000000e+000 1.000000e+000 0.000000e+000
    outer loop
      vertex  -2.000000e+000 1.000000e+000 1.000000e+000
      vertex  -2.000000e+000 1.000000e+000 0.000000e+000
      vertex  -3.199134e+000 1.000000e+000 3.804723e-001
    endloop
  endfacet
  facet normal 0.000000e+000 1.000000e+000 0.000000e+000
    outer loop
      vertex  -2.000000e+000 1.000000e+000 1.000000e+000
      vertex  -3.199134e+000 1.000000e+000 3.804723e-001
      vertex  -3.199134e+000 1.000000e+000 1.000000e+000
    endloop
  endfacet
  facet normal 7.819546e-002 0.000000e+000 -9.969380e-001
    outer loop
      vertex  3.029347e+000 -8.780000e-001 1.016591e-002
      vertex  3.029347e+000 8.780000e-001 1.016591e-002
      vertex  4.058695e+000 5.260000e-001 9.090342e-002
    endloop
  endfacet
  facet normal 7.819547e-002 0.000000e+000 -9.969381e-001
    outer loop
      vertex  3.029347e+000 -8.780000e-001 1.016591e-002
      vertex  4.058695e+000 5.260000e-001 9.090342e-002
      vertex  4.058695e+000 -5.260000e-001 9.090342e-002
    endloop
  endfacet
  facet normal 2.656898e-001 0.000000e+000 -9.640586e-001
    outer loop
      vertex  4.058695e+000 -5.260000e-001 9.090342e-002
      vertex  4.058695e+000 5.260000e-001 9.090342e-002
      vertex  4.558837e+000 0.000000e+000 2.287402e-001
    endloop
  endfacet
  facet normal 3.235682e-001 9.462048e-001 -0.000000e+000
    outer loop
      vertex  3.029347e+000 8.780000e-001 1.016591e-002
      vertex  3.029347e+000 8.780000e-001 8.780000e-001
      vertex  4.058695e+000 5.260000e-001 5.260000e-001
    endloop
  endfacet
  facet normal 3.235682e-001 9.462048e-001 0.000000e+000
    outer loop
      vertex  3.029347e+000 8.780000e-001 1.016591e-002
      vertex  4.058695e+000 5.260000e-001 5.260000e-001
      vertex  4.058695e+000 5.260000e-001 9.090342e-002
    endloop
  endfacet
  facet normal 7.246949e-001 6.890699e-001 -0.000000e+000
    outer loop
      vertex  4.058695e+000 5.260000e-001 9.090342e-002
      vertex  4.058695e+000 5.260000e-001 5.260000e-001
      vertex  4.558837e+000 0.000000e+000 2.287402e-001
    endloop
  endfacet
  facet normal 3.235682e-001 0.000000e+000 9.462048e-001
    outer loop
      vertex  3.029347e+000 -8.780000e-001 8.780000e-001
      vertex  4.058695e+000 -5.260000e-001 5.260000e-001
      vertex  4.058695e+000 5.260000e-001 5.260000e-001
    endloop
  endfacet
  facet normal 3.235682e-001 0.000000e+000 9.462048e-001
    outer loop
      vertex  4.058695e+000 5.260000e-001 5.260000e-001
      vertex  3.029347e+000 8.780000e-001 8.780000e-001
      vertex  3.029347e+000 -8.780000e-001 8.780000e-001
    endloop
  endfacet
  facet normal 5.109201e-001 0.000000e+000 8.596282e-001
    outer loop
      vertex  4.058695e+000 5.260000e-001 5.260000e-001
      vertex  4.058695e+000 -5.260000e-001 5.260000e-001
      vertex  4.558837e+000 0.000000e+000 2.287402e-001
    endloop
  endfacet
  facet normal 3.235682e-001 -9.462048e-001 0.000000e+000
    outer loop
      vertex  4.058695e+000 -5.260000e-001 9.090342e-002
      vertex  4.058695e+000 -5.260000e-001 5.260000e-001
      vertex  3.029347e+000 -8.780000e-001 1.016591e-002
    endloop
  endfacet
  facet normal 3.235682e-001 -9.462048e-001 0.000000e+000
    outer loop
      vertex  4.058695e+000 -5.260000e-001 5.260000e-001
      vertex  3.029347e+000 -8.780000e-001 8.780000e-001
      vertex  3.029347e+000 -8.780000e-001 1.016591e-002
    endloop
  endfacet
  facet normal 7.246949e-001 -6.890699e-001 0.000000e+000
    outer loop
      vertex  4.558837e+000 0.000000e+000 2.287402e-001
      vertex  4.058695e+000 -5.260000e-001 5.260000e-001
      vertex  4.058695e+000 -5.260000e-001 9.090342e-002
    endloop
  endfacet
  facet normal -1.991651e-001 0.000000e+000 -9.799659e-001
    outer loop
      vertex  -3.199134e+000 -1.000000e+000 3.804723e-001
      vertex  -4.398267e+000 -1.000000e+000 6.241803e-001
      vertex  -4.398267e+000 1.000000e+000 6.241803e-001
    endloop
  endfacet
  facet normal -1.991651e-001 0.000000e+000 -9.799659e-001
    outer loop
      vertex  -4.398267e+000 1.000000e+000 6.241803e-001
      vertex  -3.199134e+000 1.000000e+000 3.804723e-001
      vertex  -3.199134e+000 -1.000000e+000 3.804723e-001
    endloop
  endfacet
  facet normal -1.507749e-001 0.000000e+000 -9.885682e-001
    outer loop
      vertex  -5.597401e+000 1.000000e+000 8.070703e-001
      vertex  -4.398267e+000 1.000000e+000 6.241803e-001
      vertex  -4.398267e+000 -1.000000e+000 6.241803e-001
    endloop
  endfacet
  facet normal -1.507749e-001 -0.000000e+000 -9.885682e-001
    outer loop
      vertex  -5.597401e+000 1.000000e+000 8.070703e-001
      vertex  -4.398267e+000 -1.000000e+000 6.241803e-001
      vertex  -5.597401e+000 -1.000000e+000 8.070703e-001
    endloop
  endfacet
  facet normal 0.000000e+000 -1.000000e+000 0.000000e+000
    outer loop
      vertex  -3.199134e+000 -1.000000e+000 3.804723e-001
      vertex  -3.199134e+000 -1.000000e+000 1.000000e+000
      vertex  -4.398267e+000 -1.000000e+000 6.241803e-001
    endloop
  endfacet
  facet normal -0.000000e+000 -1.000000e+000 0.000000e+000
    outer loop
      vertex  -3.199134e+000 -1.000000e+000 1.000000e+000
      vertex  -4.398267e+000 -1.000000e+000 1.000000e+000
      vertex  -4.398267e+000 -1.000000e+000 6.241803e-001
    endloop
  endfacet
  facet normal 0.000000e+000 -1.000000e+000 0.000000e+000
    outer loop
      vertex  -5.597401e+000 -1.000000e+000 8.070703e-001
      vertex  -4.398267e+000 -1.000000e+000 6.241803e-001
      vertex  -4.398267e+000 -1.000000e+000 1.000000e+000
    endloop
  endfacet
  facet normal -0.000000e+000 -1.000000e+000 0.000000e+000
    outer loop
      vertex  -4.398267e+000 -1.000000e+000 1.000000e+000
      vertex  -5.597401e+000 -1.000000e+000 1.000000e+000
      vertex  -5.597401e+000 -1.000000e+000 8.070703e-001
    endloop
  endfacet
  facet normal 0.000000e+000 -0.000000e+000 1.000000e+000
    outer loop
      vertex  -3.199134e+000 -1.000000e+000 1.000000e+000
      vertex  -3.199134e+000 1.000000e+000 1.000000e+000
      vertex  -4.398267e+000 -1.000000e+000 1.000000e+000
    endloop
  endfacet
  facet normal 0.000000e+000 0.000000e+000 1.000000e+000
    outer loop
      vertex  -3.199134e+000 1.000000e+000 1.000000e+000
      vertex  -4.398267e+000 1.000000e+000 1.000000e+000
      vertex  -4.398267e+000 -1.000000e+000 1.000000e+000
    endloop
  endfacet
  facet normal 0.000000e+000 0.000000e+000 1.000000e+000
    outer loop
      vertex  -5.597401e+000 -1.000000e+000 1.000000e+000
      vertex  -4.398267e+000 -1.000000e+000 1.000000e+000
      vertex  -4.398267e+000 1.000000e+000 1.000000e+000
    endloop
  endfacet
  facet normal 0.000000e+000 0.000000e+000 1.000000e+000
    outer loop
      vertex  -4.398267e+000 1.000000e+000 1.000000e+000
      vertex  -5.597401e+000 1.000000e+000 1.000000e+000
      vertex  -5.597401e+000 -1.000000e+000 1.000000e+000
    endloop
  endfacet
  facet normal 0.000000e+000 1.000000e+000 0.000000e+000
    outer loop
      vertex  -4.398267e+000 1.000000e+000 6.241803e-001
      vertex  -4.398267e+000 1.000000e+000 1.000000e+000
      vertex  -3.199134e+000 1.000000e+000 1.000000e+000
    endloop
  endfacet
  facet normal -0.000000e+000 1.000000e+000 0.000000e+000
    outer loop
      vertex  -4.398267e+000 1.000000e+000 6.241803e-001
      vertex  -3.199134e+000 1.000000e+000 1.000000e+000
      vertex  -3.199134e+000 1.000000e+000 3.804723e-001
    endloop
  endfacet
  facet normal 0.000000e+000 1.000000e+000 0.000000e+000
    outer loop
      vertex  -5.597401e+000 1.000000e+000 8.070703e-001
      vertex  -5.597401e+000 1.000000e+000 1.000000e+000
      vertex  -4.398267e+000 1.000000e+000 1.000000e+000
    endloop
  endfacet
  facet normal -0.000000e+000 1.000000e+000 0.000000e+000
    outer loop
      vertex  -5.597401e+000 1.000000e+000 8.070703e-001
      vertex  -4.398267e+000 1.000000e+000 1.000000e+000
      vertex  -4.398267e+000 1.000000e+000 6.241803e-001
    endloop
  endfacet
  facet normal 0.000000e+000 0.000000e+000 1.000000e+000
    outer loop
      vertex  -6.666667e-001 -3.900000e-001 1.648951e+000
      vertex  6.666667e-001 -3.900000e-001 1.648951e+000
      vertex  6.666667e-001 3.900000e-001 1.648951e+000
    endloop
  endfacet
  facet normal 0.000000e+000 0.000000e+000 1.000000e+000
    outer loop
      vertex  6.666667e-001 3.900000e-001 1.648951e+000
      vertex  -6.666667e-001 3.900000e-001 1.648951e+000
      vertex  -6.666667e-001 -3.900000e-001 1.648951e+000
    endloop
  endfacet
  facet normal 4.376304e-001 0.000000e+000 8.991550e-001
    outer loop
      vertex  6.666667e-001 3.900000e-001 1.648951e+000
      vertex  6.666667e-001 -3.900000e-001 1.648951e+000
      vertex  2.000000e+000 -1.000000e+000 1.000000e+000
    endloop
  endfacet
  facet normal 4.376304e-001 -0.000000e+000 8.991549e-001
    outer loop
      vertex  2.000000e+000 -1.000000e+000 1.000000e+000
      vertex  2.000000e+000 1.000000e+000 1.000000e+000
      vertex  6.666667e-001 3.900000e-001 1.648951e+000
    endloop
  endfacet
  facet normal -0.000000e+000 1.000000e+000 0.000000e+000
    outer loop
      vertex  -2.000000e+000 1.000000e+000 1.000000e+000
      vertex  2.000000e+000 1.000000e+000 1.000000e+000
      vertex  2.000000e+000 1.000000e+000 0.000000e+000
    endloop
  endfacet
  facet normal 0.000000e+000 1.000000e+000 0.000000e+000
    outer loop
      vertex  -2.000000e+000 1.000000e+000 1.000000e+000
      vertex  2.000000e+000 1.000000e+000 0.000000e+000
      vertex  -2.000000e+000 1.000000e+000 0.000000e+000
    endloop
  endfacet
  facet normal 0.000000e+000 -7.286352e-001 6.849020e-001
    outer loop
      vertex  2.000000e+000 -1.000000e+000 1.000000e+000
      vertex  6.666667e-001 -3.900000e-001 1.648951e+000
      vertex  -6.666667e-001 -3.900000e-001 1.648951e+000
    endloop
  endfacet
  facet normal 0.000000e+000 -7.286353e-001 6.849020e-001
    outer loop
      vertex  -6.666667e-001 -3.900000e-001 1.648951e+000
      vertex  -2.000000e+000 -1.000000e+000 1.000000e+000
      vertex  2.000000e+000 -1.000000e+000 1.000000e+000
    endloop
  endfacet
endsolid vcg
