solid vcg
  facet normal  0.000000e+00  0.000000e+00 -1.000000e+00
    outer loop
      vertex  -2.000000e+00  1.000000e+00  0.000000e+00
      vertex   2.000000e+00  1.000000e+00  0.000000e+00
      vertex   2.000000e+00 -1.000000e+00  0.000000e+00
    endloop
  endfacet
  facet normal  0.000000e+00  0.000000e+00 -1.000000e+00
    outer loop
      vertex  -2.000000e+00  1.000000e+00  0.000000e+00
      vertex   2.000000e+00 -1.000000e+00  0.000000e+00
      vertex  -2.000000e+00 -1.000000e+00  0.000000e+00
    endloop
  endfacet
  facet normal  0.000000e+00 -1.000000e+00  0.000000e+00
    outer loop
      vertex  -2.000000e+00 -1.000000e+00  0.000000e+00
      vertex   2.000000e+00 -1.000000e+00  0.000000e+00
      vertex   2.000000e+00 -1.000000e+00  1.000000e+00
    endloop
  endfacet
  facet normal -0.000000e+00 -1.000000e+00  0.000000e+00
    outer loop
      vertex   2.000000e+00 -1.000000e+00  1.000000e+00
      vertex  -2.000000e+00 -1.000000e+00  1.000000e+00
      vertex  -2.000000e+00 -1.000000e+00  0.000000e+00
    endloop
  endfacet
  facet normal -0.000000e+00  1.000000e+00  0.000000e+00
    outer loop
      vertex  -2.000000e+00  1.000000e+00  1.000000e+00
      vertex   2.000000e+00  1.000000e+00  1.000000e+00
      vertex   2.000000e+00  1.000000e+00  0.000000e+00
    endloop
  endfacet
  facet normal  0.000000e+00  1.000000e+00  0.000000e+00
    outer loop
      vertex  -2.000000e+00  1.000000e+00  1.000000e+00
      vertex   2.000000e+00  1.000000e+00  0.000000e+00
      vertex  -2.000000e+00  1.000000e+00  0.000000e+00
    endloop
  endfacet
  facet normal -3.169573e-01  9.484398e-01  0.000000e+00
    outer loop
      vertex  -2.000000e+00  1.000000e+00  0.000000e+00
      vertex  -4.992327e+00  0.000000e+00  7.581689e-01
      vertex  -2.000000e+00  1.000000e+00  1.000000e+00
    endloop
  endfacet
  facet normal -2.456099e-01  0.000000e+00 -9.693687e-01
    outer loop
      vertex  -2.000000e+00 -1.000000e+00  0.000000e+00
      vertex  -4.992327e+00  0.000000e+00  7.581689e-01
      vertex  -2.000000e+00  1.000000e+00  0.000000e+00
    endloop
  endfacet
  facet normal -3.169573e-01 -9.484398e-01 -0.000000e+00
    outer loop
      vertex  -2.000000e+00 -1.000000e+00  1.000000e+00
      vertex  -4.992327e+00  0.000000e+00  7.581689e-01
      vertex  -2.000000e+00 -1.000000e+00  0.000000e+00
    endloop
  endfacet
  facet normal -8.055442e-02  0.000000e+00  9.967502e-01
    outer loop
      vertex  -2.000000e+00  1.000000e+00  1.000000e+00
      vertex  -4.992327e+00  0.000000e+00  7.581689e-01
      vertex  -2.000000e+00 -1.000000e+00  1.000000e+00
    endloop
  endfacet
  facet normal  2.860122e-01  0.000000e+00 -9.582260e-01
    outer loop
      vertex   2.780619e+00  3.720636e-01  2.330000e-01
      vertex   2.780619e+00 -3.720636e-01  2.330000e-01
      vertex   2.000000e+00 -1.000000e+00  0.000000e+00
    endloop
  endfacet
  facet normal  2.860122e-01  0.000000e+00 -9.582260e-01
    outer loop
      vertex   2.000000e+00 -1.000000e+00  0.000000e+00
      vertex   2.000000e+00  1.000000e+00  0.000000e+00
      vertex   2.780619e+00  3.720636e-01  2.330000e-01
    endloop
  endfacet
  facet normal  6.267871e-01  7.791906e-01  0.000000e+00
    outer loop
      vertex   2.780619e+00  3.720636e-01  7.670000e-01
      vertex   2.780619e+00  3.720636e-01  2.330000e-01
      vertex   2.000000e+00  1.000000e+00  0.000000e+00
    endloop
  endfacet
  facet normal  6.267871e-01  7.791906e-01 -0.000000e+00
    outer loop
      vertex   2.000000e+00  1.000000e+00  0.000000e+00
      vertex   2.000000e+00  1.000000e+00  1.000000e+00
      vertex   2.780619e+00  3.720636e-01  7.670000e-01
    endloop
  endfacet
  facet normal  2.860121e-01  0.000000e+00  9.582260e-01
    outer loop
      vertex   2.000000e+00 -1.000000e+00  1.000000e+00
      vertex   2.780619e+00 -3.720636e-01  7.670000e-01
      vertex   2.780619e+00  3.720636e-01  7.670000e-01
    endloop
  endfacet
  facet normal  2.860122e-01  0.000000e+00  9.582260e-01
    outer loop
      vertex   2.780619e+00  3.720636e-01  7.670000e-01
      vertex   2.000000e+00  1.000000e+00  1.000000e+00
      vertex   2.000000e+00 -1.000000e+00  1.000000e+00
    endloop
  endfacet
  facet normal  6.267871e-01 -7.791906e-01  0.000000e+00
    outer loop
      vertex   2.000000e+00 -1.000000e+00  0.000000e+00
      vertex   2.780619e+00 -3.720636e-01  2.330000e-01
      vertex   2.780619e+00 -3.720636e-01  7.670000e-01
    endloop
  endfacet
  facet normal  6.267871e-01 -7.791906e-01  0.000000e+00
    outer loop
      vertex   2.780619e+00 -3.720636e-01  7.670000e-01
      vertex   2.000000e+00 -1.000000e+00  1.000000e+00
      vertex   2.000000e+00 -1.000000e+00  0.000000e+00
    endloop
  endfacet
  facet normal  5.867856e-01  0.000000e+00 -8.097423e-01
    outer loop
      vertex   2.780619e+00  3.720636e-01  2.330000e-01
      vertex   3.149070e+00  0.000000e+00  5.000000e-01
      vertex   2.780619e+00 -3.720636e-01  2.330000e-01
    endloop
  endfacet
  facet normal  7.105487e-01  7.036480e-01  0.000000e+00
    outer loop
      vertex   2.780619e+00  3.720636e-01  7.670000e-01
      vertex   3.149070e+00  0.000000e+00  5.000000e-01
      vertex   2.780619e+00  3.720636e-01  2.330000e-01
    endloop
  endfacet
  facet normal  5.867856e-01 -0.000000e+00  8.097423e-01
    outer loop
      vertex   2.780619e+00 -3.720636e-01  7.670000e-01
      vertex   3.149070e+00  0.000000e+00  5.000000e-01
      vertex   2.780619e+00  3.720636e-01  7.670000e-01
    endloop
  endfacet
  facet normal  7.105487e-01 -7.036480e-01  0.000000e+00
    outer loop
      vertex   2.780619e+00 -3.720636e-01  2.330000e-01
      vertex   3.149070e+00  0.000000e+00  5.000000e-01
      vertex   2.780619e+00 -3.720636e-01  7.670000e-01
    endloop
  endfacet
  facet normal  0.000000e+00  0.000000e+00  1.000000e+00
    outer loop
      vertex   5.366419e-01  4.815000e-01  1.552771e+00
      vertex  -3.429447e-01  4.815000e-01  1.552771e+00
      vertex  -3.429447e-01 -4.815000e-01  1.552771e+00
    endloop
  endfacet
  facet normal  0.000000e+00  0.000000e+00  1.000000e+00
    outer loop
      vertex   5.366419e-01  4.815000e-01  1.552771e+00
      vertex  -3.429447e-01 -4.815000e-01  1.552771e+00
      vertex   5.366419e-01 -4.815000e-01  1.552771e+00
    endloop
  endfacet
  facet normal  0.000000e+00  0.000000e+00  1.000000e+00
    outer loop
      vertex   1.712869e+00  6.420000e-01  1.000000e+00
      vertex   1.712869e+00 -6.420000e-01  1.000000e+00
      vertex   2.000000e+00 -1.000000e+00  1.000000e+00
    endloop
  endfacet
  facet normal  0.000000e+00 -0.000000e+00  1.000000e+00
    outer loop
      vertex   2.000000e+00 -1.000000e+00  1.000000e+00
      vertex   2.000000e+00  1.000000e+00  1.000000e+00
      vertex   1.712869e+00  6.420000e-01  1.000000e+00
    endloop
  endfacet
  facet normal  0.000000e+00  0.000000e+00  1.000000e+00
    outer loop
      vertex  -6.312101e-01  6.420000e-01  1.000000e+00
      vertex   1.712869e+00  6.420000e-01  1.000000e+00
      vertex   2.000000e+00  1.000000e+00  1.000000e+00
    endloop
  endfacet
  facet normal  0.000000e+00  0.000000e+00  1.000000e+00
    outer loop
      vertex   2.000000e+00  1.000000e+00  1.000000e+00
      vertex  -2.000000e+00  1.000000e+00  1.000000e+00
      vertex  -6.312101e-01  6.420000e-01  1.000000e+00
    endloop
  endfacet
  facet normal  0.000000e+00  0.000000e+00  1.000000e+00
    outer loop
      vertex  -2.000000e+00 -1.000000e+00  1.000000e+00
      vertex  -6.312101e-01 -6.420000e-01  1.000000e+00
      vertex  -6.312101e-01  6.420000e-01  1.000000e+00
    endloop
  endfacet
  facet normal  0.000000e+00  0.000000e+00  1.000000e+00
    outer loop
      vertex  -6.312101e-01  6.420000e-01  1.000000e+00
      vertex  -2.000000e+00  1.000000e+00  1.000000e+00
      vertex  -2.000000e+00 -1.000000e+00  1.000000e+00
    endloop
  endfacet
  facet normal  0.000000e+00  0.000000e+00  1.000000e+00
    outer loop
      vertex   2.000000e+00 -1.000000e+00  1.000000e+00
      vertex   1.712869e+00 -6.420000e-01  1.000000e+00
      vertex  -6.312101e-01 -6.420000e-01  1.000000e+00
    endloop
  endfacet
  facet normal  0.000000e+00  0.000000e+00  1.000000e+00
    outer loop
      vertex   2.000000e+00 -1.000000e+00  1.000000e+00
      vertex  -6.312101e-01 -6.420000e-01  1.000000e+00
      vertex  -2.000000e+00 -1.000000e+00  1.000000e+00
    endloop
  endfacet
  facet normal  4.253260e-01  0.000000e+00  9.050403e-01
    outer loop
      vertex   5.366419e-01  4.815000e-01  1.552771e+00
      vertex   5.366419e-01 -4.815000e-01  1.552771e+00
      vertex   1.712869e+00 -6.420000e-01  1.000000e+00
    endloop
  endfacet
  facet normal  4.253260e-01 -0.000000e+00  9.050403e-01
    outer loop
      vertex   1.712869e+00 -6.420000e-01  1.000000e+00
      vertex   1.712869e+00  6.420000e-01  1.000000e+00
      vertex   5.366419e-01  4.815000e-01  1.552771e+00
    endloop
  endfacet
  facet normal  0.000000e+00  9.603378e-01  2.788392e-01
    outer loop
      vertex  -6.312101e-01  6.420000e-01  1.000000e+00
      vertex  -3.429447e-01  4.815000e-01  1.552771e+00
      vertex   5.366419e-01  4.815000e-01  1.552771e+00
    endloop
  endfacet
  facet normal -0.000000e+00  9.603378e-01  2.788392e-01
    outer loop
      vertex  -6.312101e-01  6.420000e-01  1.000000e+00
      vertex   5.366419e-01  4.815000e-01  1.552771e+00
      vertex   1.712869e+00  6.420000e-01  1.000000e+00
    endloop
  endfacet
  facet normal -8.866748e-01  0.000000e+00  4.623934e-01
    outer loop
      vertex  -6.312101e-01 -6.420000e-01  1.000000e+00
      vertex  -3.429447e-01 -4.815000e-01  1.552771e+00
      vertex  -3.429447e-01  4.815000e-01  1.552771e+00
    endloop
  endfacet
  facet normal -8.866748e-01  0.000000e+00  4.623935e-01
    outer loop
      vertex  -3.429447e-01  4.815000e-01  1.552771e+00
      vertex  -6.312101e-01  6.420000e-01  1.000000e+00
      vertex  -6.312101e-01 -6.420000e-01  1.000000e+00
    endloop
  endfacet
  facet normal  0.000000e+00 -9.603378e-01  2.788392e-01
    outer loop
      vertex  -6.312101e-01 -6.420000e-01  1.000000e+00
      vertex   1.712869e+00 -6.420000e-01  1.000000e+00
      vertex   5.366419e-01 -4.815000e-01  1.552771e+00
    endloop
  endfacet
  facet normal  0.000000e+00 -9.603378e-01  2.788392e-01
    outer loop
      vertex  -6.312101e-01 -6.420000e-01  1.000000e+00
      vertex   5.366419e-01 -4.815000e-01  1.552771e+00
      vertex  -3.429447e-01 -4.815000e-01  1.552771e+00
    endloop
  endfacet
endsolid vcg
